{"title":"Fatmagul E113-115 DVDRip GR Subs [mkv]","uid":8711317,"size":1690047050,"categoryP":"video","categoryS":"tv_shows","magnet":"?xt=urn:btih:7fce2ad277e28e5adf69883ea5bb9112b6796a94&amp;dn=Fatmagul+E113-115+DVDRip+GR+Subs+%5Bmkv%5D&amp;tr=udp%3A%2F%2Ftracker.openbittorrent.com%3A80&amp;tr=udp%3A%2F%2Fopen.demonii.com%3A1337&amp;tr=udp%3A%2F%2Ftracker.coppersurfer.tk%3A6969&amp;tr=udp%3A%2F%2Fexodus.desync.com%3A6969","seeders":1,"leechers":1,"uploader":"Kama_","files":-1,"time":1374242635,"description":"Format                         : Matroska\nFormat version                 : Version 1\nFile size                      : 1.57 GiB\nDuration                       : 2h 30mn\nOverall bit rate mode          : Variable\nOverall bit rate               : 1 501 Kbps\nWriting application            : DivXMKVMux 3.7.0.0073\nWriting library                : libDivXMediaFormat 3.7.0.0073\n\nVideo\nID                             : 1\nFormat                         : AVC\nFormat/Info                    : Advanced Video Codec\nFormat profile                 : &lt;a class=&quot;__cf_email__&quot; href=&quot;/cdn-cgi/l/email-protection&quot; data-cfemail=&quot;2b63424c436b671f051b&quot;&gt;[email&amp;#160;protected]&lt;/a&gt;&lt;script cf-hash='f9e31' type=&quot;text/javascript&quot;&gt;\n/* &lt;![CDATA[ */!function(){try{var t=&quot;currentScript&quot;in document?document.currentScript:function(){for(var t=document.getElementsByTagName(&quot;script&quot;),e=t.length;e--;)if(t[e].getAttribute(&quot;cf-hash&quot;))return t[e]}();if(t&amp;&amp;t.previousSibling){var e,r,n,i,c=t.previousSibling,a=c.getAttribute(&quot;data-cfemail&quot;);if(a){for(e=&quot;&quot;,r=parseInt(a.substr(0,2),16),n=2;a.length-n;n+=2)i=parseInt(a.substr(n,2),16)^r,e+=String.fromCharCode(i);e=document.createTextNode(e),c.parentNode.replaceChild(e,c)}}}catch(u){}}();/* ]]&gt; */&lt;/script&gt;\nFormat settings, CABAC         : Yes\nFormat settings, ReFrames      : 3 frames\nCodec ID                       : V_MPEG4/ISO/AVC\nDuration                       : 2h 30mn\nBit rate mode                  : Variable\nBit rate                       : 1 279 Kbps\nMaximum bit rate               : 20.0 Mbps\nWidth                          : 1 024 pixels\nHeight                         : 576 pixels\nDisplay aspect ratio           : 16:9\nFrame rate mode                : Constant\nFrame rate                     : 25.000 fps\nStandard                       : PAL\nColor space                    : YUV\nChroma subsampling             : 4:2:0\nBit depth                      : 8 bits\nScan type                      : Progressive\nBits/(Pixel*Frame)             : 0.087\nStream size                    : 1.34 GiB (85%)\nLanguage                       : English\nDefault                        : Yes\nForced                         : No\nColor primaries                : BT.709\nTransfer characteristics       : BT.709\nMatrix coefficients            : BT.709\n\nAudio\nID                             : 2\nFormat                         : AC-3\nFormat/Info                    : Audio Coding 3\nMode extension                 : CM (complete main)\nFormat settings, Endianness    : Big\nCodec ID                       : A_AC3\nDuration                       : 2h 30mn\nBit rate mode                  : Constant\nBit rate                       : 192 Kbps\nChannel(s)                     : 2 channels\nChannel positions              : Front: L R\nSampling rate                  : 48.0 KHz\nBit depth                      : 16 bits\nCompression mode               : Lossy\nStream size                    : 206 MiB (13%)\nLanguage                       : Turkish\nDefault                        : Yes\nForced                         : No","torrent":{"xt":"urn:btih:7fce2ad277e28e5adf69883ea5bb9112b6796a94","amp;dn":"Fatmagul+E113-115+DVDRip+GR+Subs+%5Bmkv%5D","amp;tr":["udp%3A%2F%2Ftracker.openbittorrent.com%3A80","udp%3A%2F%2Fopen.demonii.com%3A1337","udp%3A%2F%2Ftracker.coppersurfer.tk%3A6969","udp%3A%2F%2Fexodus.desync.com%3A6969"],"infoHash":"7fce2ad277e28e5adf69883ea5bb9112b6796a94","infoHashBuffer":{"type":"Buffer","data":[127,206,42,210,119,226,142,90,223,105,136,62,165,187,145,18,182,121,106,148]},"announce":[],"urlList":[]}}